<?xml version="1.0" encoding="UTF-8" standalone="no"?>
<svg
   xmlns:dc="http://purl.org/dc/elements/1.1/"
   xmlns:cc="http://creativecommons.org/ns#"
   xmlns:rdf="http://www.w3.org/1999/02/22-rdf-syntax-ns#"
   xmlns:svg="http://www.w3.org/2000/svg"
   xmlns="http://www.w3.org/2000/svg"
   version="1.1"
   id="svg4666"
   viewBox="0 0 315 120"
   height="120"
   width="315">
  <defs
     id="defs4668">
    <clipPath
       clipPathUnits="userSpaceOnUse"
       id="clipPath3550">
      <path
         d="m 0,0 1190.551,0 0,841.89 L 0,841.89 0,0 Z"
         id="path3552" />
    </clipPath>
    <clipPath
       clipPathUnits="userSpaceOnUse"
       id="clipPath3470">
      <path
         d="m 0,0 1190.551,0 0,841.89 L 0,841.89 0,0 Z"
         id="path3472" />
    </clipPath>
    <clipPath
       clipPathUnits="userSpaceOnUse"
       id="clipPath3434">
      <path
         d="m 0,0 1190.551,0 0,841.89 L 0,841.89 0,0 Z"
         id="path3436" />
    </clipPath>
    <clipPath
       clipPathUnits="userSpaceOnUse"
       id="clipPath3418">
      <path
         d="m 0,0 1190.551,0 0,841.89 L 0,841.89 0,0 Z"
         id="path3420" />
    </clipPath>
  </defs>
  <metadata
     id="metadata4671">
    <rdf:RDF>
      <cc:Work
         rdf:about="">
        <dc:format>image/svg+xml</dc:format>
        <dc:type
           rdf:resource="http://purl.org/dc/dcmitype/StillImage" />
        <dc:title></dc:title>
      </cc:Work>
    </rdf:RDF>
  </metadata>
  <g
     transform="translate(0,-932.36216)"
     id="layer1">
    <g
       transform="matrix(0.95454174,0,0,0.93019144,-0.17892782,71.098057)"
       id="g5277">
      <g
         id="g3414"
         transform="matrix(1.25,0,0,-1.25,-807.61009,1948.4283)">
        <g
           id="g3416"
           clip-path="url(#clipPath3418)">
          <g
             id="g3422"
             transform="translate(689.019,788.0563)">
            <path
               d="m 0,0 -6.979,25 3.755,0 3.265,-12.648 C 0.857,9.236 1.592,6.12 2.082,3.709 l 0.081,0 c 0.449,2.485 1.306,5.453 2.245,8.68 L 8.081,25 11.795,25 15.142,12.315 C 15.917,9.347 16.652,6.38 17.06,3.746 l 0.082,0 c 0.571,2.745 1.347,5.527 2.204,8.643 L 22.979,25 26.611,25 18.816,0 15.101,0 11.632,13.019 c -0.857,3.19 -1.428,5.638 -1.796,8.16 l -0.081,0 C 9.265,18.694 8.653,16.246 7.632,13.019 L 3.714,0 0,0 Z"
               style="fill:#59c8ca;fill-opacity:1;fill-rule:nonzero;stroke:none"
               id="path3424" />
          </g>
        </g>
      </g>
      <g
         id="g3426"
         transform="matrix(1.25,0,0,-1.25,95.656294,932.10875)">
        <path
           d="m 0,0 0,-10.46 13.305,0 0,10.46 3.592,0 0,-25 -3.592,0 0,11.722 -13.305,0 0,-11.722 -3.551,0 0,25 L 0,0 Z"
           style="fill:#59c8ca;fill-opacity:1;fill-rule:nonzero;stroke:none"
           id="path3428" />
      </g>
      <g
         id="g3430"
         transform="matrix(1.25,0,0,-1.25,-807.61009,1948.4283)">
        <g
           id="g3432"
           clip-path="url(#clipPath3434)">
          <g
             id="g3438"
             transform="translate(769.185,800.8157)">
            <path
               d="m 0,0 c 0,-8.605 -5.755,-13.167 -12.774,-13.167 -7.266,0 -12.367,5.118 -12.367,12.685 0,7.937 5.428,13.13 12.774,13.13 C -4.857,12.648 0,7.418 0,0 m -21.346,-0.408 c 0,-5.341 3.184,-10.126 8.776,-10.126 5.632,0 8.815,4.711 8.815,10.386 0,4.97 -2.857,10.163 -8.775,10.163 -5.877,0 -8.816,-4.933 -8.816,-10.423"
               style="fill:#59c8ca;fill-opacity:1;fill-rule:nonzero;stroke:none"
               id="path3440" />
          </g>
          <g
             id="g3442"
             transform="translate(687.67,766.8112)">
            <path
               d="m 0,0 c 0,-8.605 -5.754,-13.167 -12.774,-13.167 -7.266,0 -12.367,5.118 -12.367,12.685 0,7.937 5.428,13.13 12.775,13.13 C -4.857,12.648 0,7.418 0,0 m -21.346,-0.408 c 0,-5.341 3.184,-10.126 8.776,-10.126 5.632,0 8.815,4.711 8.815,10.385 0,4.971 -2.857,10.164 -8.774,10.164 -5.878,0 -8.817,-4.933 -8.817,-10.423"
               style="fill:#f14536;fill-opacity:1;fill-rule:nonzero;stroke:none"
               id="path3444" />
          </g>
          <g
             id="g3446"
             transform="translate(696.7753,754.0517)">
            <path
               d="m 0,0 -6.979,25 3.755,0 3.265,-12.648 C 0.857,9.236 1.592,6.12 2.082,3.709 l 0.081,0 c 0.449,2.485 1.306,5.453 2.245,8.68 L 8.081,25 11.795,25 15.142,12.315 C 15.917,9.347 16.653,6.38 17.06,3.746 l 0.082,0 c 0.571,2.745 1.347,5.527 2.204,8.643 L 22.979,25 26.611,25 18.816,0 15.101,0 11.632,13.019 c -0.857,3.19 -1.428,5.638 -1.796,8.16 l -0.081,0 C 9.265,18.694 8.653,16.246 7.632,13.019 L 3.714,0 0,0 Z"
               style="fill:#f14536;fill-opacity:1;fill-rule:nonzero;stroke:none"
               id="path3448" />
          </g>
          <g
             id="g3450"
             transform="translate(726.8182,754.0517)">
            <path
               d="m 0,0 0,25 3.877,0 8.817,-12.648 c 2.04,-2.931 3.632,-5.564 4.938,-8.124 l 0.082,0.037 c -0.327,3.339 -0.408,6.38 -0.408,10.275 l 0,10.46 3.346,0 0,-25 -3.591,0 -8.734,12.685 C 6.408,15.467 4.571,18.323 3.184,21.031 L 3.062,20.994 C 3.265,17.841 3.347,14.837 3.347,10.682 L 3.347,0 0,0 Z"
               style="fill:#f14536;fill-opacity:1;fill-rule:nonzero;stroke:none"
               id="path3452" />
          </g>
          <g
             id="g3454"
             transform="translate(753.1877,757.9833)">
            <path
               d="m 0,0 c 1.592,-0.89 3.918,-1.632 6.367,-1.632 3.633,0 5.755,1.744 5.755,4.265 0,2.337 -1.47,3.672 -5.184,4.971 -4.489,1.446 -7.265,3.561 -7.265,7.084 0,3.895 3.551,6.788 8.898,6.788 2.816,0 4.857,-0.593 6.081,-1.224 l -0.979,-2.633 c -0.898,0.445 -2.735,1.187 -5.224,1.187 -3.755,0 -5.184,-2.041 -5.184,-3.747 0,-2.337 1.674,-3.486 5.469,-4.822 4.653,-1.632 7.02,-3.672 7.02,-7.344 0,-3.857 -3.142,-7.195 -9.632,-7.195 -2.653,0 -5.55,0.704 -7.02,1.594 L 0,0 Z"
               style="fill:#f14536;fill-opacity:1;fill-rule:nonzero;stroke:none"
               id="path3456" />
          </g>
          <g
             id="g3458"
             transform="translate(656.2034,720.0508)">
            <path
               d="m 0,0 -6.979,25 3.755,0 3.265,-12.648 C 0.857,9.236 1.592,6.12 2.082,3.709 l 0.081,0 c 0.449,2.485 1.306,5.453 2.245,8.68 L 8.081,25 11.795,25 15.142,12.315 C 15.917,9.347 16.653,6.38 17.06,3.746 l 0.082,0 c 0.571,2.745 1.347,5.527 2.204,8.643 L 22.979,25 26.611,25 18.816,0 15.101,0 11.632,13.019 c -0.857,3.19 -1.428,5.638 -1.796,8.16 l -0.081,0 C 9.265,18.694 8.653,16.246 7.632,13.019 L 3.714,0 0,0 Z"
               style="fill:#59c8ca;fill-opacity:1;fill-rule:nonzero;stroke:none"
               id="path3460" />
          </g>
        </g>
      </g>
      <g
         id="g3462"
         transform="matrix(1.25,0,0,-1.25,54.637041,1017.1156)">
        <path
           d="m 0,0 0,-10.46 13.305,0 0,10.46 3.592,0 0,-25 -3.592,0 0,11.722 -13.305,0 0,-11.722 -3.551,0 0,25 L 0,0 Z"
           style="fill:#59c8ca;fill-opacity:1;fill-rule:nonzero;stroke:none"
           id="path3464" />
      </g>
      <g
         id="g3466"
         transform="matrix(1.25,0,0,-1.25,-807.61009,1948.4283)">
        <g
           id="g3468"
           clip-path="url(#clipPath3470)">
          <g
             id="g3474"
             transform="translate(736.3696,732.8102)">
            <path
               d="m 0,0 c 0,-8.605 -5.755,-13.167 -12.774,-13.167 -7.266,0 -12.367,5.118 -12.367,12.685 0,7.937 5.428,13.13 12.775,13.13 C -4.857,12.648 0,7.418 0,0 m -21.346,-0.408 c 0,-5.341 3.184,-10.126 8.776,-10.126 5.632,0 8.815,4.711 8.815,10.386 0,4.97 -2.857,10.163 -8.775,10.163 -5.877,0 -8.816,-4.934 -8.816,-10.423"
               style="fill:#59c8ca;fill-opacity:1;fill-rule:nonzero;stroke:none"
               id="path3476" />
          </g>
          <g
             id="g3478"
             transform="translate(764.1671,731.0298)">
            <path
               d="m 0,0 c -0.204,3.487 -0.449,7.678 -0.408,10.794 l -0.122,0 C -1.469,7.864 -2.612,4.748 -4,1.298 l -4.856,-12.129 -2.694,0 -4.449,11.907 c -1.306,3.523 -2.408,6.75 -3.183,9.718 l -0.082,0 C -19.346,7.678 -19.55,3.487 -19.795,-0.26 l -0.734,-10.719 -3.387,0 1.917,25 4.531,0 4.694,-12.092 c 1.142,-3.079 2.081,-5.824 2.774,-8.42 l 0.123,0 c 0.694,2.522 1.674,5.267 2.898,8.42 l 4.898,12.092 4.53,0 1.714,-25 -3.469,0 L 0,0 Z"
               style="fill:#59c8ca;fill-opacity:1;fill-rule:nonzero;stroke:none"
               id="path3480" />
          </g>
          <g
             id="g3482"
             transform="translate(795.4012,801.0558)">
            <path
               d="m 0,0 -2.487,-4.951 -2.046,0 8.113,15.667 2.278,0 2.161,-15.667 -1.975,0 L 5.416,0 0,0 Z M 5.253,1.534 4.649,6.067 C 4.556,6.88 4.44,8.019 4.37,8.949 l -0.047,0 C 3.905,8.019 3.51,7.043 3.045,6.09 l -2.348,-4.556 4.556,0 z"
               style="fill:#59c8ca;fill-opacity:1;fill-rule:nonzero;stroke:none"
               id="path3484" />
          </g>
          <g
             id="g3486"
             transform="translate(806.0007,796.1047)">
            <path
               d="m 0,0 1.836,9.74 -1.487,0 0.279,1.51 1.511,0 0.116,0.581 c 0.255,1.581 0.813,3.022 1.836,3.929 0.697,0.651 1.697,0.999 2.673,0.999 0.767,0 1.279,-0.139 1.534,-0.302 L 7.88,14.923 c -0.302,0.139 -0.697,0.209 -1.139,0.209 -1.534,0 -2.278,-1.487 -2.603,-3.347 l -0.093,-0.535 2.51,0 L 6.253,9.74 3.766,9.74 1.906,0 0,0 Z"
               style="fill:#59c8ca;fill-opacity:1;fill-rule:nonzero;stroke:none"
               id="path3488" />
          </g>
          <g
             id="g3490"
             transform="translate(812.7641,796.1047)">
            <path
               d="m 0,0 1.371,7.252 c 0.279,1.465 0.465,2.952 0.582,3.998 l 1.696,0 C 3.556,10.46 3.464,9.67 3.347,8.81 l 0.07,0 c 0.721,1.534 1.929,2.696 3.44,2.696 0.163,0 0.395,-0.023 0.535,-0.046 L 7.02,9.554 C 6.904,9.577 6.718,9.6 6.508,9.6 4.835,9.6 3.347,7.578 2.859,4.951 L 1.929,0 0,0 Z"
               style="fill:#59c8ca;fill-opacity:1;fill-rule:nonzero;stroke:none"
               id="path3492" />
          </g>
          <g
             id="g3494"
             transform="translate(820.6201,796.1047)">
            <path
               d="m 0,0 2.162,11.25 1.929,0 L 1.929,0 0,0 Z m 2.51,14.388 c 0,0.744 0.582,1.302 1.279,1.302 0.697,0 1.139,-0.511 1.139,-1.209 C 4.905,13.714 4.37,13.18 3.626,13.18 2.952,13.18 2.51,13.691 2.51,14.388"
               style="fill:#59c8ca;fill-opacity:1;fill-rule:nonzero;stroke:none"
               id="path3496" />
          </g>
          <g
             id="g3498"
             transform="translate(834.1476,796.5464)">
            <path
               d="m 0,0 c -0.581,-0.279 -1.743,-0.674 -3.254,-0.674 -2.906,0 -4.324,1.952 -4.324,4.347 0,3.835 2.836,7.368 6.881,7.368 1.046,0 1.999,-0.302 2.347,-0.488 L 1.093,9.019 c -0.442,0.209 -1.07,0.418 -1.907,0.418 -2.928,0 -4.765,-2.882 -4.765,-5.532 0,-1.813 0.953,-2.999 2.79,-2.999 1.139,0 2.022,0.349 2.603,0.628 L 0,0 Z"
               style="fill:#59c8ca;fill-opacity:1;fill-rule:nonzero;stroke:none"
               id="path3500" />
          </g>
          <g
             id="g3502"
             transform="translate(843.8137,796.1047)">
            <path
               d="m 0,0 c 0,0.674 0.116,1.743 0.256,2.906 l -0.047,0 c -1.232,-2.325 -2.766,-3.162 -4.37,-3.162 -1.975,0 -3.231,1.581 -3.231,3.719 0,3.906 2.883,8.043 7.787,8.043 1.069,0 2.255,-0.186 3.022,-0.442 L 2.278,5.207 C 1.906,3.254 1.743,1.255 1.79,0 L 0,0 Z m 1.255,9.809 c -0.279,0.07 -0.697,0.163 -1.348,0.163 -2.906,0 -5.276,-3.045 -5.3,-6.16 0,-1.255 0.442,-2.487 1.93,-2.487 1.604,0 3.51,2.092 4.067,5.09 l 0.651,3.394 z"
               style="fill:#59c8ca;fill-opacity:1;fill-rule:nonzero;stroke:none"
               id="path3504" />
          </g>
          <g
             id="g3506"
             transform="translate(848.9493,796.1047)">
            <path
               d="m 0,0 1.511,7.973 c 0.256,1.255 0.395,2.348 0.535,3.277 l 1.72,0 -0.279,-2.208 0.046,0 c 1,1.581 2.511,2.464 4.161,2.464 1.348,0 2.859,-0.767 2.859,-3.138 0,-0.488 -0.093,-1.209 -0.209,-1.813 L 9.089,0 7.159,0 8.391,6.485 c 0.093,0.442 0.163,0.977 0.163,1.441 0,1.139 -0.442,1.976 -1.767,1.976 -1.371,0 -3.323,-1.65 -3.835,-4.44 L 1.929,0 0,0 Z"
               style="fill:#59c8ca;fill-opacity:1;fill-rule:nonzero;stroke:none"
               id="path3508" />
          </g>
          <g
             id="g3510"
             transform="translate(795.1454,790.9038)">
            <path
               d="m 0,0 c 0.953,0.186 2.092,0.325 3.37,0.325 1.604,0 2.767,-0.348 3.603,-1.092 0.721,-0.581 1.139,-1.418 1.139,-2.441 0,-1.976 -1.603,-3.44 -3.393,-3.905 l 0,-0.046 c 1.418,-0.419 2.603,-1.604 2.58,-3.487 0,-1.604 -0.86,-2.859 -1.883,-3.626 -1.232,-0.93 -2.952,-1.279 -5.067,-1.279 -1.349,0 -2.511,0.07 -3.255,0.21 L 0,0 Z m -0.744,-13.9 c 0.488,-0.07 1.069,-0.093 1.604,-0.093 2.278,-0.023 4.416,0.93 4.416,3.44 0,1.836 -1.557,2.65 -3.323,2.65 l -1.558,0 -1.139,-5.997 z m 1.441,7.461 1.442,0 c 2.231,0 3.974,1.162 3.974,3.069 0,1.51 -1.139,2.161 -2.836,2.161 -0.72,0 -1.301,-0.07 -1.603,-0.162 L 0.697,-6.439 Z"
               style="fill:#59c8ca;fill-opacity:1;fill-rule:nonzero;stroke:none"
               id="path3512" />
          </g>
          <g
             id="g3514"
             transform="translate(815.6464,786.6965)">
            <path
               d="m 0,0 -1.511,-7.973 c -0.232,-1.255 -0.395,-2.348 -0.511,-3.277 l -1.744,0 0.303,2.115 -0.047,0 c -0.999,-1.465 -2.487,-2.371 -3.975,-2.371 -1.441,0 -2.952,0.697 -2.952,3.254 0,0.535 0.07,1.139 0.209,1.883 L -9.019,0 -7.09,0 -8.275,-6.276 c -0.14,-0.628 -0.209,-1.162 -0.209,-1.65 0,-1.163 0.488,-1.953 1.813,-1.953 1.395,0 3.184,1.627 3.649,4.114 L -1.929,0 0,0 Z"
               style="fill:#59c8ca;fill-opacity:1;fill-rule:nonzero;stroke:none"
               id="path3516" />
          </g>
          <g
             id="g3518"
             transform="translate(817.4581,777.3987)">
            <path
               d="m 0,0 c 0.535,-0.325 1.511,-0.697 2.417,-0.697 1.302,0 2.139,0.836 2.139,1.836 0,0.883 -0.395,1.418 -1.557,2.069 -1.302,0.72 -2.023,1.72 -2.023,2.859 0,1.976 1.697,3.487 4.068,3.487 1.023,0 1.929,-0.279 2.348,-0.558 L 6.857,7.531 C 6.462,7.764 5.741,8.043 4.905,8.043 3.742,8.043 2.906,7.322 2.906,6.346 2.906,5.532 3.44,5.021 4.44,4.463 5.695,3.742 6.555,2.766 6.555,1.511 c 0,-2.371 -1.929,-3.696 -4.3,-3.696 -1.209,0 -2.278,0.372 -2.79,0.767 L 0,0 Z"
               style="fill:#59c8ca;fill-opacity:1;fill-rule:nonzero;stroke:none"
               id="path3520" />
          </g>
          <g
             id="g3522"
             transform="translate(826.4987,775.4462)">
            <path
               d="m 0,0 2.162,11.25 1.929,0 L 1.929,0 0,0 Z m 2.51,14.388 c 0,0.744 0.582,1.302 1.279,1.302 0.697,0 1.139,-0.511 1.139,-1.209 C 4.905,13.714 4.37,13.18 3.626,13.18 2.952,13.18 2.51,13.691 2.51,14.388"
               style="fill:#59c8ca;fill-opacity:1;fill-rule:nonzero;stroke:none"
               id="path3524" />
          </g>
          <g
             id="g3526"
             transform="translate(832.2858,775.4462)">
            <path
               d="m 0,0 1.511,7.973 c 0.256,1.255 0.395,2.348 0.535,3.277 l 1.72,0 -0.279,-2.208 0.046,0 c 1,1.581 2.511,2.464 4.161,2.464 1.348,0 2.859,-0.767 2.859,-3.138 0,-0.488 -0.093,-1.209 -0.209,-1.813 L 9.089,0 7.159,0 8.391,6.485 c 0.093,0.442 0.163,0.976 0.163,1.441 0,1.139 -0.442,1.976 -1.767,1.976 -1.371,0 -3.323,-1.65 -3.835,-4.44 L 1.929,0 0,0 Z"
               style="fill:#59c8ca;fill-opacity:1;fill-rule:nonzero;stroke:none"
               id="path3528" />
          </g>
          <g
             id="g3530"
             transform="translate(853.275,776.097)">
            <path
               d="m 0,0 c -0.837,-0.488 -2.208,-0.883 -3.719,-0.883 -2.975,0 -4.277,2.022 -4.277,4.509 0,3.394 2.51,7.229 6.136,7.229 2.139,0 3.301,-1.278 3.301,-2.882 0,-2.952 -3.324,-3.742 -7.485,-3.673 -0.093,-0.488 -0.023,-1.534 0.233,-2.138 0.441,-1 1.348,-1.511 2.51,-1.511 1.325,0 2.325,0.418 3.022,0.79 L 0,0 Z m -2.139,9.344 c -1.836,0 -3.207,-1.789 -3.672,-3.556 3.022,-0.023 5.393,0.372 5.393,2.115 0,0.93 -0.698,1.441 -1.721,1.441"
               style="fill:#59c8ca;fill-opacity:1;fill-rule:nonzero;stroke:none"
               id="path3532" />
          </g>
          <g
             id="g3534"
             transform="translate(856.2488,777.3987)">
            <path
               d="m 0,0 c 0.535,-0.325 1.511,-0.697 2.417,-0.697 1.302,0 2.139,0.836 2.139,1.836 0,0.883 -0.395,1.418 -1.557,2.069 -1.302,0.72 -2.023,1.72 -2.023,2.859 0,1.976 1.697,3.487 4.068,3.487 1.023,0 1.929,-0.279 2.348,-0.558 L 6.857,7.531 C 6.462,7.764 5.741,8.043 4.905,8.043 3.742,8.043 2.906,7.322 2.906,6.346 2.906,5.532 3.44,5.021 4.44,4.463 5.695,3.742 6.555,2.766 6.555,1.511 c 0,-2.371 -1.929,-3.696 -4.3,-3.696 -1.209,0 -2.278,0.372 -2.79,0.767 L 0,0 Z"
               style="fill:#59c8ca;fill-opacity:1;fill-rule:nonzero;stroke:none"
               id="path3536" />
          </g>
          <g
             id="g3538"
             transform="translate(865.3832,777.3987)">
            <path
               d="m 0,0 c 0.535,-0.325 1.511,-0.697 2.417,-0.697 1.302,0 2.139,0.836 2.139,1.836 0,0.883 -0.395,1.418 -1.557,2.069 -1.302,0.72 -2.023,1.72 -2.023,2.859 0,1.976 1.697,3.487 4.068,3.487 1.023,0 1.929,-0.279 2.348,-0.558 L 6.857,7.531 C 6.462,7.764 5.741,8.043 4.905,8.043 3.742,8.043 2.906,7.322 2.906,6.346 2.906,5.532 3.44,5.021 4.44,4.463 5.695,3.742 6.555,2.766 6.555,1.511 c 0,-2.371 -1.929,-3.696 -4.3,-3.696 -1.209,0 -2.278,0.372 -2.79,0.767 L 0,0 Z"
               style="fill:#59c8ca;fill-opacity:1;fill-rule:nonzero;stroke:none"
               id="path3540" />
          </g>
        </g>
      </g>
      <g
         id="g3542"
         transform="matrix(1.25,0,0,-1.25,188.76244,985.35063)">
        <path
           d="m 0,0 -2.975,-15.667 -1.93,0 L -1.929,0 0,0 Z"
           style="fill:#59c8ca;fill-opacity:1;fill-rule:nonzero;stroke:none"
           id="path3544" />
      </g>
      <g
         id="g3546"
         transform="matrix(1.25,0,0,-1.25,-807.61009,1948.4283)">
        <g
           id="g3548"
           clip-path="url(#clipPath3550)">
          <g
             id="g3554"
             transform="translate(798.027,754.7955)">
            <path
               d="m 0,0 1.511,7.973 c 0.256,1.255 0.395,2.348 0.535,3.277 l 1.72,0 -0.279,-2.208 0.046,0 c 1,1.581 2.511,2.464 4.161,2.464 1.348,0 2.859,-0.767 2.859,-3.138 0,-0.488 -0.093,-1.209 -0.209,-1.813 L 9.089,0 7.159,0 8.391,6.485 c 0.093,0.442 0.163,0.977 0.163,1.441 0,1.139 -0.442,1.976 -1.767,1.976 -1.371,0 -3.323,-1.65 -3.835,-4.439 L 1.929,0 0,0 Z"
               style="fill:#59c8ca;fill-opacity:1;fill-rule:nonzero;stroke:none"
               id="path3556" />
          </g>
          <g
             id="g3558"
             transform="translate(811.1821,754.7955)">
            <path
               d="m 0,0 1.836,9.74 -1.487,0 0.279,1.51 1.51,0 0.117,0.582 c 0.255,1.58 0.813,3.021 1.836,3.928 0.697,0.651 1.697,0.999 2.673,0.999 0.767,0 1.279,-0.139 1.534,-0.302 L 7.88,14.923 c -0.302,0.14 -0.698,0.209 -1.139,0.209 -1.534,0 -2.278,-1.487 -2.604,-3.347 l -0.092,-0.535 2.51,0 L 6.253,9.74 3.766,9.74 1.906,0 0,0 Z"
               style="fill:#59c8ca;fill-opacity:1;fill-rule:nonzero;stroke:none"
               id="path3560" />
          </g>
          <g
             id="g3562"
             transform="translate(828.7309,761.6062)">
            <path
               d="m 0,0 c 0,-3.463 -2.464,-7.066 -6.229,-7.066 -2.813,0 -4.394,2.092 -4.394,4.625 0,3.696 2.58,7.136 6.23,7.136 C -1.348,4.695 0,2.394 0,0 m -8.624,-2.371 c 0,-1.836 1,-3.161 2.65,-3.161 2.278,0 3.998,2.929 3.998,5.555 0,1.302 -0.604,3.138 -2.626,3.138 -2.418,0 -4.045,-2.952 -4.022,-5.532"
               style="fill:#59c8ca;fill-opacity:1;fill-rule:nonzero;stroke:none"
               id="path3564" />
          </g>
          <g
             id="g3566"
             transform="translate(830.5425,754.7955)">
            <path
               d="m 0,0 1.371,7.252 c 0.279,1.465 0.465,2.952 0.582,3.998 l 1.696,0 C 3.556,10.46 3.463,9.67 3.347,8.81 l 0.07,0 c 0.721,1.534 1.929,2.696 3.44,2.696 0.163,0 0.395,-0.023 0.535,-0.046 L 7.02,9.554 C 6.904,9.577 6.718,9.6 6.508,9.6 4.835,9.6 3.347,7.578 2.859,4.951 L 1.929,0 0,0 Z"
               style="fill:#59c8ca;fill-opacity:1;fill-rule:nonzero;stroke:none"
               id="path3568" />
          </g>
          <g
             id="g3570"
             transform="translate(838.3985,754.7955)">
            <path
               d="m 0,0 1.511,7.973 c 0.232,1.255 0.395,2.348 0.511,3.277 l 1.697,0 -0.302,-2.115 0.07,0 c 1.046,1.558 2.464,2.371 3.951,2.371 1.72,0 2.534,-1.092 2.627,-2.51 0.999,1.627 2.44,2.487 4.137,2.51 1.302,0 2.72,-0.837 2.72,-2.952 0,-0.535 -0.07,-1.278 -0.186,-1.906 L 15.481,0 13.598,0 14.807,6.485 c 0.093,0.419 0.162,1 0.162,1.465 0,1.185 -0.441,1.952 -1.696,1.952 -1.395,0 -3.045,-1.627 -3.51,-4.137 L 8.67,0 6.811,0 8.066,6.601 C 8.159,7.09 8.205,7.531 8.205,7.973 8.205,8.926 7.95,9.902 6.532,9.902 5.114,9.902 3.37,8.043 2.929,5.648 L 1.883,0 0,0 Z"
               style="fill:#59c8ca;fill-opacity:1;fill-rule:nonzero;stroke:none"
               id="path3572" />
          </g>
          <g
             id="g3574"
             transform="translate(865.1049,754.7955)">
            <path
               d="m 0,0 c 0,0.674 0.116,1.743 0.256,2.906 l -0.047,0 c -1.232,-2.325 -2.766,-3.162 -4.37,-3.162 -1.975,0 -3.231,1.581 -3.231,3.72 0,3.905 2.883,8.042 7.787,8.042 1.069,0 2.255,-0.186 3.022,-0.442 L 2.278,5.207 C 1.906,3.254 1.743,1.255 1.79,0 L 0,0 Z m 1.255,9.809 c -0.279,0.07 -0.697,0.163 -1.348,0.163 -2.906,0 -5.276,-3.045 -5.3,-6.16 0,-1.255 0.442,-2.487 1.93,-2.487 1.604,0 3.51,2.092 4.067,5.091 l 0.651,3.393 z"
               style="fill:#59c8ca;fill-opacity:1;fill-rule:nonzero;stroke:none"
               id="path3576" />
          </g>
          <g
             id="g3578"
             transform="translate(875.2846,769.0677)">
            <path
               d="m 0,0 -0.581,-3.022 2.696,0 -0.302,-1.511 -2.696,0 -1.046,-5.462 c -0.117,-0.628 -0.209,-1.209 -0.209,-1.813 0,-0.674 0.325,-1.07 1.069,-1.07 0.325,0 0.651,0.024 0.906,0.07 l -0.093,-1.511 c -0.348,-0.139 -0.929,-0.209 -1.487,-0.209 -1.72,0 -2.371,1.046 -2.371,2.185 0,0.651 0.069,1.302 0.232,2.115 l 1.116,5.695 -1.627,0 0.302,1.511 1.604,0 0.488,2.534 L 0,0 Z"
               style="fill:#59c8ca;fill-opacity:1;fill-rule:nonzero;stroke:none"
               id="path3580" />
          </g>
          <g
             id="g3582"
             transform="translate(877.9803,754.7955)">
            <path
               d="m 0,0 2.162,11.25 1.929,0 L 1.929,0 0,0 Z m 2.51,14.388 c 0,0.744 0.582,1.302 1.279,1.302 0.697,0 1.139,-0.511 1.139,-1.209 C 4.905,13.714 4.37,13.18 3.626,13.18 2.952,13.18 2.51,13.691 2.51,14.388"
               style="fill:#59c8ca;fill-opacity:1;fill-rule:nonzero;stroke:none"
               id="path3584" />
          </g>
          <g
             id="g3586"
             transform="translate(894.5529,761.6062)">
            <path
               d="m 0,0 c 0,-3.463 -2.464,-7.066 -6.23,-7.066 -2.812,0 -4.393,2.092 -4.393,4.625 0,3.696 2.58,7.136 6.23,7.136 C -1.348,4.695 0,2.394 0,0 m -8.624,-2.371 c 0,-1.836 1,-3.161 2.65,-3.161 2.278,0 3.998,2.929 3.998,5.555 0,1.302 -0.604,3.138 -2.626,3.138 -2.418,0 -4.045,-2.952 -4.022,-5.532"
               style="fill:#59c8ca;fill-opacity:1;fill-rule:nonzero;stroke:none"
               id="path3588" />
          </g>
          <g
             id="g3590"
             transform="translate(896.3646,754.7955)">
            <path
               d="m 0,0 1.511,7.973 c 0.255,1.255 0.395,2.348 0.534,3.277 l 1.721,0 -0.279,-2.208 0.046,0 c 1,1.581 2.511,2.464 4.161,2.464 1.348,0 2.859,-0.767 2.859,-3.138 0,-0.488 -0.093,-1.209 -0.209,-1.813 L 9.089,0 7.159,0 8.391,6.485 c 0.093,0.442 0.163,0.977 0.163,1.441 0,1.139 -0.442,1.976 -1.767,1.976 -1.371,0 -3.324,-1.65 -3.835,-4.439 L 1.929,0 0,0 Z"
               style="fill:#59c8ca;fill-opacity:1;fill-rule:nonzero;stroke:none"
               id="path3592" />
          </g>
        </g>
      </g>
      <g
         id="g3594"
         transform="matrix(1.25,0,0,-1.25,166.62277,931.49937)">
        <path
           d="m 0,0 0,-94.135 2.719,0 0,94.135"
           style="fill:#f14536;fill-opacity:1;fill-rule:nonzero;stroke:none"
           id="path3596" />
      </g>
    </g>
  </g>
</svg>
